# xmcd
#
# Track frame offsets: 
#        150
#        18164
#        34853
#        52562
#        67131
#        81621
#        99193
#        114761
#        130702
#        148729
#
# Disc length: 2248 seconds
#
# Revision: 0
# Processed by: cddbd v1.5.2PL0 Copyright (c) Steve Scherf et al.
# Submitted via: ExactAudioCopy v0.99pb3
#
DISCID=7a08c60a
DTITLE=Jena Walker - Unwound
DYEAR=2009
DGENRE=Country
TTITLE0=In Your Dreams
TTITLE1=Keep Waiting
TTITLE2=Kind Of Love
TTITLE3=What Would Waylon Do
TTITLE4=Breathe Again
TTITLE5=Make Me Believe
TTITLE6=My First Day Over You
TTITLE7=Six Foot Three
TTITLE8=Honky Tonk Song
TTITLE9=Stay With Me
EXTD=
EXTT0=
EXTT1=
EXTT2=
EXTT3=
EXTT4=
EXTT5=
EXTT6=
EXTT7=
EXTT8=
EXTT9=
PLAYORDER=
